/* XPM */
static char *e5353b581f0f4d71ad12af5241ba287d4OsfV758RJrrsTLg[] = {
/* columns rows colors chars-per-pixel */
"48 48 192 2 ",
"   c #030202",
".  c #0A0604",
"X  c #0C0A06",
"o  c #060808",
"O  c #0C0C0B",
"+  c #140C06",
"@  c #150F0B",
"#  c #180F09",
"$  c #0F110B",
"%  c #13130D",
"&  c #1B130D",
"*  c #14180E",
"=  c #141513",
"-  c #1A1513",
";  c #161912",
":  c #1A1B14",
">  c #111119",
",  c #1C1D1C",
"<  c #22180F",
"1  c #211711",
"2  c #241A12",
"3  c #2A1D14",
"4  c #221E1C",
"5  c #301F12",
"6  c #1D2114",
"7  c #1F201F",
"8  c #222717",
"9  c #22231D",
"0  c #2D2419",
"q  c #252A1C",
"w  c #2A2D1D",
"e  c #322115",
"r  c #34241A",
"t  c #3A2718",
"y  c #3C291A",
"u  c #2B311E",
"i  c #000E24",
"p  c #0B1426",
"a  c #151828",
"s  c #021633",
"d  c #121D36",
"f  c #242524",
"g  c #2C2726",
"h  c #242921",
"j  c #2A2C25",
"k  c #272728",
"l  c #2C2D2C",
"z  c #332E27",
"x  c #293020",
"c  c #2E3328",
"v  c #303722",
"b  c #3B3024",
"n  c #323923",
"m  c #33342B",
"M  c #3B362D",
"N  c #33392D",
"B  c #2F2E31",
"V  c #343434",
"C  c #3B3633",
"Z  c #373836",
"A  c #3B3B34",
"S  c #3C3B3B",
"D  c #432D1E",
"F  c #402F2A",
"G  c #443225",
"H  c #4B3423",
"J  c #4A3429",
"K  c #533A26",
"L  c #5A3E29",
"P  c #453E36",
"I  c #463F3A",
"U  c #583E31",
"Y  c #3C4235",
"T  c #3F433D",
"R  c #5D412B",
"E  c #49473A",
"W  c #444B3D",
"Q  c #5B4237",
"!  c #63442D",
"~  c #6B4A32",
"^  c #68493E",
"/  c #704D33",
"(  c #7B5639",
")  c #001E45",
"_  c #0E2143",
"`  c #142547",
"'  c #012654",
"]  c #082758",
"[  c #172C58",
"{  c #30354F",
"}  c #022C63",
"|  c #00326D",
" . c #033475",
".. c #043678",
"X. c #444444",
"o. c #484747",
"O. c #474946",
"+. c #4C4C4C",
"@. c #554C42",
"#. c #584E44",
"$. c #485040",
"%. c #5C5248",
"&. c #535B4A",
"*. c #4F5052",
"=. c gray32",
"-. c #595756",
";. c #6C4C40",
":. c #655A4E",
">. c #7C574A",
",. c #675F56",
"<. c #58614F",
"1. c #5D6653",
"2. c #6D6155",
"3. c #76675A",
"4. c #5E5F61",
"5. c #686867",
"6. c #7F7162",
"7. c #757679",
"8. c #835B3C",
"9. c #8E623F",
"0. c #815C4C",
"q. c #8B6146",
"w. c #9A6B46",
"e. c #906455",
"r. c #A4724C",
"t. c #AD7950",
"y. c #B37C52",
"u. c #847567",
"i. c #86786A",
"p. c #AB7461",
"a. c #AC7967",
"s. c #BB8256",
"d. c #BE8458",
"f. c #938373",
"g. c #B7816D",
"h. c #B88774",
"j. c #A4917F",
"k. c #C38B76",
"l. c #DE9074",
"z. c #F1916F",
"x. c #E3967B",
"c. c #F39675",
"v. c #013C85",
"b. c #02469A",
"n. c #024AA3",
"m. c #014FAC",
"M. c #0155BA",
"N. c #025ECD",
"B. c #0261D3",
"V. c #7C8186",
"C. c #838586",
"Z. c #8F959B",
"A. c #929394",
"S. c #A69686",
"D. c #B19D8B",
"F. c #B5A18E",
"G. c #BAA793",
"H. c #9DA1A6",
"J. c #A4A6AA",
"K. c #B2AEAB",
"L. c #B6B6B7",
"P. c #DC9981",
"I. c #E79C83",
"U. c #CFAC96",
"Y. c #F0B39A",
"T. c #C9B6A1",
"R. c #C4B9AE",
"E. c #D0BBA4",
"W. c #DBC5AF",
"Q. c #DDC9B2",
"!. c #EEC4AB",
"~. c #E4CCB4",
"^. c #EBCEB6",
"/. c #FACEB3",
"(. c #ECD4BB",
"). c #F1D7BE",
"_. c #BDBFC1",
"`. c #BDC0C4",
"'. c #C3C6CB",
"]. c #CCCDD1",
"[. c #CCD0D6",
"{. c #D6D9DE",
"}. c #EFDAC1",
"|. c #F5DDC3",
" X c #FBDFC5",
".X c #F7E1C6",
"XX c #FCE1C7",
"oX c #FEE4C9",
"OX c #DCDEE3",
"+X c #E4E6E9",
"@X c #E9EAED",
"#X c #F0F1F2",
/* pixels */
"l 7 7 l l 7 l f 7 7 7 7 l f 7 l l 7 7 l f 7 f 7 7 7 7 f l 7 7 l l 7 7 l f 7 f l l l 7 7 l 7 7 l ",
"1.$.n 1.$.7 n 1.x f 7 f $.7 x $.1.$.n 1.$.7 x x x x w x x 7 v 1.1.$.x x x 7 n 1.n 1.$.1.1.7 n 1.",
"$.1.$.$.1.7 n $.$.x 7 n $.x 7 x $.1.$.$.1.7 n $.n x x $.n l 1.$.$.1.$.x x 7 n $.$.$.1.$.$.l 1.$.",
"n n n n $.7 f n n $.7 x n 7 7 7 x n n n $.f x $.$.n n n n l $.n n n n n $.l n n n $.n $.n l $.n ",
"l l l f f 7 7 f 7 f 7 7 7 7 f 7 l l 7 7 7 7 f f f f 7 7 7 7 7 7 l l l 7 7 f f f 7 7 7 7 f l l l ",
"1.7 n 1.$.$.7 7 f l 1.n 1.1.x f 1.7 x x x x x x x 7 x x x x n $.1.7 n $.v x x x x f 1.n 1.1.1.$.",
"$.l 1.$.x f 7 7 7 f 1.$.$.$.$.x $.l $.x x $.$.x x 7 x x x x $.n $.l $.n $.n x x n f 1.$.$.$.$.n ",
"n 7 n n $.n f 7 7 7 $.n n n $.$.n 7 n $.x n n $.n 7 n v x n n $.n 7 n n $.n n x n 7 $.n n n $.$.",
"7 7 7 l l 7 f f 7 f f f 7 7 l l 7 7 7 B f f f 7 7 7 7 7 7 7 f l f 7 7 f l f f 7 7 7 7 7 7 f l l ",
"$.n 1.n n l 1.1.1.$.$.1.$.7 1.$.$.n 1.n n l 1.1.T h h c h k 1.$.$.v 1.n n f x x x x x x $.l 1.$.",
"$.$.$.1.n 7 1.$.$.n $.n n f n 1.$.$.$.$.8 = T N 7 = ; , = ; 6 T N $.$.1.n 7 $.x v x x n n 7 n 1.",
"n n $.$.$.7 n n $.$.$.n n l $.$.n n Y 7 ; f l B N V V V B l f 7 $ w W $.$.7 n $.$.$.$.n n l $.$.",
"l f f l l l l l 7 7 7 7 7 l l l l 7 $ a V X.+.+.+.+.+.+.+.O.X.Z f O f k l l l l 7 7 7 7 7 l l l ",
"n l 1.1.1.$.1.1.n 7 1.1.$.$.1.1.w $ f O.*.+.+.+.+.+.+.+.+.+.+.+.O.l , W 1.$.1.1.n 7 1.1.$.$.1.1.",
"$.l n n $.$.$.$.1.f n W 1.n $.Y 9 , O.+.+.+.+.+.+.+.+.+.+.+.+.+.+.X.k ; N $.$.$.1.7 n $.1.n $.$.",
"$.f W $.n $.1.$.n l n n n $.n 8 , S =.*.+.+.+.+.+.+.+.+.+.+.+.+.+.+.Z , ; $.1.$.n l n n n $.n n ",
"l 7 7 l l 7 l l l l 7 7 l 7 7 7 l +.*.+.+.+.+.+.+.+.+.+.+.+.+.+.+.+.X.k = , f 7 7 , f f l 7 7 l ",
"1.$.n 1.$.7 n 1.n 1.$.1.1.7 v W V *.+.+.+.+.+.+.+.+.+.+.+.+.+.+.+.+.X.V x a x x x x x w x 7 n 1.",
"$.1.$.$.1.7 n $.$.$.1.$.$.l 1.Y A =.+.+.+.+.+.+.+.+.+.+.+.*.+.+.+.+.o.V A 4 n $.n x x $.n l 1.$.",
"n n n n $.l n n n $.n $.n 7 N 7 S =.+.+.+.+.+.+.+.+.+.+.+.+.+.+.+.+.X.B x k u $.$.n n v n l $.n ",
"l l l f f f f l l 7 7 7 l , = 7 S =.=.+.+.+.+.+.+.@.+.+.+.+.+.+.+.O.S k = 7 f f f f 7 7 7 7 , 7 ",
"1.7 n 1.$.1.1.$.1.l 1.n 1.1.N , Z +.+.o.o.O.o.o.X.{ X.I X.+.+.o.o.T Z f ; w u j x 7 x x x x n $.",
"W l 1.W W W W $.n 7 1.$.$.$.c = f V Z C C Z Z B l g f 4 B X.o.S l k f 7 ; $.$.x x 7 x x x x $.n ",
"n 7 n $ = $ o 6 x 7 $.n n n W N , k 4 , , , 4 k z E @.E f S Z , - = = X * n n $.n 7 n n x n n $.",
"7 7 7 o *.7.7.-.f , f f 7 7 l f z %.u.j.D.D.S.i.%.P :.f.M f g ;.a.a.0.J > f f 7 7 7 7 7 7 f f l ",
"$.n <.$ 7.L.`.J.5.S Y 1.$.7 1.N 4 P 2.F.W.Q.G.2.P P i.T.#.4 ^ p.l.l.k.q.0 l 1.1.1.$.$.1.W l 1.$.",
"$.$.W 7 Z.[.+X[.H.4.N x n f n W   X j G.(.}.U.@.- E S.(.6.F e.l.c.z.x.p.z 4 1.$.$.n $.n n 7 n 1.",
"n n W 7 H.`.OX{.OXA.E : n l $.N   - #.E.|..X~.3.z :.G..XS.3.a.I.z.z.x.p.M 9 n n $.$.$.n n l $.W ",
"l f f O 5.L.OX+X#X_.7.= f l l 9 O m f.~.XX X|.S.#.6.T.oX!.P.P.I.P.P.a.;.6 l l l 7 7 7 7 f l l l ",
"n l 1.&.O.7.L.@X@XOXJ.O.j W 1.W -.S.W.|.oXoXXX~.G.T.(.oX!.Y.k.e.>.>.U E &.$.1.1.n 7 1.1.$.$.1.1.",
"W l n n Y W Z.@X@X+X_.7.h v W N 5.R. XoXoXoXoX X(.).oXXX/.Y.h.Q % % O 8 $.$.$.$.1.7 n $.1.n $.W ",
"$.7 $.W n Y 7.].@X+X'.Z.X.Y w 6 ,.K.}.XXoXoXoXoXoXoXoX X/.Y.g.Q   . 9 Y n $.1.$.n l n n n $.n n ",
"l 7 7 l l : *.A.+XOX'.H.4.f + . m 5.T.~.(.).}.).|.).(.^.U.k.0.3     , l l 7 l l l l 7 7 l 7 7 l ",
"1.$.n 1.W 7 n -.'.OX_.V.B g D e . 4 P :.3.3.u.u.u.u.3.:.U F 4 o , E v 1.$.7 n 1.n 1.$.1.1.7 n 1.",
"$.1.$.$.1.7 u B f.H.C.+.H ~ K 5     o 4 B S C C I { { { [ ..} s o c f Y 1.4 n $.$.$.1.$.$.l 1.$.",
"n n n n $.l x w { 1.-.R ~ L D 3         ]  .) i } v.n.n.n.n.v.)   & @ ; Y l n n n $.n $.n 7 $.n ",
"l l l f f f f l O G ~ ( ~ r K H # # + o ..b. .] v.N.B.N.N.m.b.' . 2 & & : 9 f l l 7 7 , l f f f ",
"1.7 n 1.$.1.1.W 9 ~ 8.>.< e ( ~ 5 3 - o  .b.v...v.N.B.N.M.m.v.] . < t H K b &.W 1.l 1.n 1.1.1.$.",
"$.l 1.$.$.$.$.W % G G 5 1 1 e D D +     ) ' d a ] v.v.v. .| ' s # D 8.t.t.( 0 Y n 7 1.$.$.$.$.n ",
"n 7 n n $.n n $.u 2 # t ~ ! t t G 3 o   > a - 3 a ` [ [ _ d p > t 9.y.s.y.t.H W n 7 $.n n n $.$.",
"f 7 7 l l f f 7 7 ; $ r ~ w.8.L r 2 .   , k 4 4 g B A P V k , = 5 ( y.d.s.y.L 3 , 7 f f 7 7 l l ",
"$.n 1.n n l 1.1.1.$.Y N H w.w./ 1 +     , k f 4 l A S { V f , $ + y w.y.y.r.H m $.$.$.1.$.7 1.$.",
"$.$.$.1.n 7 1.$.$.n $.x 2 R 8.! & 1     X O h 9 9 : 6 ; % O X       ~ 9.9.K w W $.n $.n n f n 1.",
"n n $.$.$.7 n n $.$.$.n v 1 3 2 r K &   m 6 v v W $.W n n k c       2 e 3 & x n $.$.$.n n l $.$.",
"l f f l l l l l , f 9 f 4 k k , & e .   a l l l 7 7 7 7 7 l 7   . , f f f k l l 7 7 7 f 7 l l l ",
"n l 1.1.1.$.1.1.n 4 1.1.W $.1.&.q 9 W q W $.1.1.n 7 1.1.$.$.W   X k 1.1.1.$.1.1.n 7 1.1.$.$.1.1.",
"$.l n n $.$.$.$.1.7 n $.1.n W W $.l u * N W $.$.1.7 n $.1.u j   * l n n $.$.$.$.1.7 n $.1.n $.$.",
"$.7 $.$.n $.1.$.n l n n n $.n n W , 8 : u W 1.$.n l n n n x $ $ 9 7 $.W n $.1.$.n l n n n $.n n "
};
