/* XPM */
static char *_c5ab474f60743a3bf2bf343c028bc202KnKTXoWNQezzseR[] = {
/* columns rows colors chars-per-pixel */
"48 48 227 2 ",
"   c #010101",
".  c #0A0605",
"X  c #040A04",
"o  c #090805",
"O  c #040509",
"+  c #0C0509",
"@  c #050C0A",
"#  c #0C0B0B",
"$  c #140B0B",
"%  c #1A0E0C",
"&  c #09130B",
"*  c #08150A",
"=  c #12150C",
"-  c #1D140E",
";  c #141D0D",
":  c #070E12",
">  c #170E13",
",  c #0A1215",
"<  c #0D1B12",
"1  c #0C171A",
"2  c #1A1618",
"3  c #21140F",
"4  c #280D10",
"5  c #241512",
"6  c #2C1615",
"7  c #2D1816",
"8  c #27181B",
"9  c #331A1A",
"0  c #0F210D",
"q  c #11230E",
"w  c #0E2317",
"e  c #152715",
"r  c #142911",
"t  c #1F201F",
"y  c #142B1A",
"u  c #1A3619",
"i  c #2B2319",
"p  c #36291D",
"a  c #223D1A",
"s  c #141D26",
"d  c #2E1B23",
"f  c #321F26",
"g  c #172724",
"h  c #14252A",
"j  c #173524",
"k  c #1A3A24",
"l  c #172933",
"z  c #1C3739",
"x  c #1C343D",
"c  c #242524",
"v  c #282A2A",
"b  c #2C2D2C",
"n  c #3A2425",
"m  c #293020",
"M  c #323923",
"N  c #31342E",
"B  c #2C2C32",
"V  c #23333B",
"C  c #343336",
"Z  c #4B171B",
"A  c #40271D",
"S  c #741F26",
"D  c #422521",
"F  c #4B2A25",
"G  c #46282A",
"H  c #512E2D",
"J  c #4A3527",
"K  c #5D342D",
"L  c #55382A",
"P  c #432932",
"I  c #4A2D32",
"U  c #542933",
"Y  c #4B3538",
"T  c #543235",
"R  c #5B3535",
"E  c #573836",
"W  c #60362B",
"Q  c #633B2E",
"!  c #762E35",
"~  c #633934",
"^  c #673A35",
"/  c #22441C",
"(  c #254A1E",
")  c #1E4529",
"_  c #2B5728",
"`  c #264B35",
"'  c #38453C",
"]  c #285936",
"[  c #2F6729",
"{  c #386B2D",
"}  c #3B742F",
"|  c #2D623A",
" . c #346A39",
".. c #3A7430",
"X. c #3D7E33",
"o. c #36723D",
"O. c #504734",
"+. c #475539",
"@. c #5E5236",
"#. c #6C4136",
"$. c #6A4639",
"%. c #724534",
"&. c #75443B",
"*. c #79453B",
"=. c #77493B",
"-. c #7C493C",
";. c #77563B",
":. c #477B39",
">. c #54783A",
",. c #6C773F",
"<. c #1E3743",
"1. c #273C45",
"2. c #254646",
"3. c #264A45",
"4. c #244448",
"5. c #264A48",
"6. c #245446",
"7. c #2A5547",
"8. c #2B5C45",
"9. c #365C46",
"0. c #315D49",
"q. c #2D6646",
"w. c #326645",
"e. c #336C45",
"r. c #366548",
"t. c #387347",
"y. c #387646",
"u. c #3A7D46",
"i. c #3C7A49",
"p. c #4D4A4A",
"a. c #485040",
"s. c #5C5742",
"d. c #6E4F48",
"f. c #695649",
"g. c #496844",
"h. c #526443",
"j. c #596A49",
"k. c #4D7B45",
"l. c #5D6653",
"z. c #72764D",
"x. c #4D667A",
"c. c #516378",
"v. c #616D7B",
"b. c #6B747B",
"n. c #832932",
"m. c #AD343D",
"M. c #80463E",
"N. c #814C3D",
"B. c #84503D",
"V. c #A73741",
"C. c #B83644",
"Z. c #CB3947",
"A. c #DB3E48",
"S. c #854D41",
"D. c #934844",
"F. c #8B5342",
"G. c #8B5946",
"H. c #945A44",
"J. c #945846",
"K. c #9C5D49",
"L. c #874857",
"P. c #B44C48",
"I. c #A15F49",
"U. c #A74B50",
"Y. c #856242",
"T. c #9D664B",
"R. c #8E6F51",
"E. c #A3634B",
"W. c #AA674D",
"Q. c #A16C4C",
"!. c #AC694E",
"~. c #AF6C50",
"^. c #B36E51",
"/. c #B86E52",
"(. c #A97856",
"). c #B97354",
"_. c #B76C75",
"`. c #DD414A",
"'. c #EA404B",
"]. c #448639",
"[. c #568F3F",
"{. c #4B953E",
"}. c #3D8147",
"|. c #3E8249",
" X c #418349",
".X c #448B49",
"XX c #479247",
"oX c #4D9A41",
"OX c #4A954B",
"+X c #4B9B4A",
"@X c #569B47",
"#X c #648242",
"$X c #709149",
"%X c #4FA14C",
"&X c #51A44C",
"*X c #55A848",
"=X c #55AB4C",
"-X c #56B04D",
";X c #5BB44C",
":X c #5EBB4D",
">X c #5CBA51",
",X c #67B04F",
"<X c #60BE4E",
"1X c #69B84F",
"2X c #5F8E79",
"3X c #6F927C",
"4X c #62C24E",
"5X c #63C451",
"6X c #65CA52",
"7X c #85884C",
"8X c #86895A",
"9X c #998953",
"0X c #B08759",
"qX c #BB9364",
"wX c #C4845D",
"eX c #CA8D64",
"rX c #CC9969",
"tX c #D19769",
"yX c #4E748B",
"uX c #738DA1",
"iX c #8C8F91",
"pX c #96AD9F",
"aX c #A1A99A",
"sX c #8A98A8",
"dX c #8CA3B9",
"fX c #A9B0AB",
"gX c #CDCBCB",
/* pixels */
"b t t b b t b c t t t           b t t b c t c t t t t c b           t b c t c b b b t t b t t b ",
"l.a.M l.a.t M l.m c r ( ( ( ( u l.a.M l.a.t m m m m m m * / ( ( ( / * m m t M l.M l.a.l.l.t M l.",
"a.l.a.a.l.t M X X X _ *X:X;X;X} *   X a.l.t M a.M m O   r {.<X:X<X{.r X X t M     a.l.a.a.b l.a.",
"M M M M a.t X ( } } {.4X6X6X4X*X.._ j @           < ) [ ].;X4X4X6X;X].} } u       a.M a.M b a.M ",
"b b b c c O <  .;X;X=X=X=X=X=X:X<X&Xo.u q r r r r ( u.=X:X;X=X=X*X=X-X;X=X/ @ v C t t t c b b b ",
"l.t M l.  : z q.}.}.u.}.u.i.u.+X<X<X-X%X{.{.oX{.{.*X;X<X;X.Xu.u.u.}.}.|.u.r v fXiX$ l.M l.l.l.a.",
"a.b l.a.  , h j ` z.8X8Xz.j.9.] { ].=X5X6X5X5X5X6X>X&X]. .] 9.z.z.8X8Xj.k @ C fXiX# l.a.a.a.a.M ",
"M t M M a.M     i 0XrXrXeXR.p.h & ) u.*X<X<X4X<X;XoXe.y , V f.(.eXtXtXz.$   B sXyX# a.M M M a.a.",
"t t t b b t c c t J L O.^.eXT.I   X 0 u ..>X6X*X_ u <   $ $.(.tXY.L L A b   g uXv.+ t t t c b b ",
"a.M l.M M b l.l.l.      ;.0XwX;.e v B O u $X,X>.; , C y p T.wX(.L       M O 1.sXv.+ m m a.b l.a.",
"a.a.a.l.M t l.a.a.M a.M $ J 0X9Xr.pXfXB 5 M.D.^ $ p.gX3Xg.qXQ.i a.a.a.l.O <.x.dXv.. m M M t M l.",
"M M a.a.a.t M M a.a.a.M M - ;.f.w.pXaX! S C.C.V.S R.fX2Xr.f.O.  M M a.a.O 1.yXuXuXb.p.M M b a.a.",
"b c c b b b b b t t t t t b @ 1 1.q.j.P.A.`.`.`.A.D.t.5.l #   b b b b b O 1.c.c.dXgXf.  t b b b ",
"M b l.l.l.a.l.l.M t l.l.a.@ k y 1 ) h.M.Z.'.'.A.Z.d. .j :     l.M b l.l.O P L.U._._.Y   a.a.l.l.",
"a.b M M a.a.a.a.l.t M a.* y o. .u ` r.d.D.P.P.P.-.s.9.) r < & a.a.b M M . Z ! m.V.! 4   l.M a.a.",
"a.t a.a.M a.l.a.M b M X k t.*X;XoXw.3.9.g.g.g.g.g.9.3.u.oXo.k X a.t a.a.M + 4 U U P 3   M a.M M ",
"b t t b b t b b b b t X _ &X:X5X5XOXt.7.6.6.6.6.6.8.i.=X>X=X .j & i s b c # 8 U ! n.9   b t t b ",
"l.a.M l.a.t M l.M l.a.* ..<X5X:X>X<X&Xr.5.5.5.5.4.k.;X>X>X>X&Xy.u * M l.  8 P ! C.C.Z   m t M l.",
"a.l.a.a.l.t M a.a.  w ` XX5X5X&XOX&X;X+XOXOXOXOXOX=X>X+XOX>X<X&X{.{ ;   l.# 6 ^ ^ Z 4 a.M b l.a.",
"M M M M a.b M M M   e  .&X:X;X.Xr.+X5X5X5X4X4X4X4X5X>X Xe.+X;X<X6X*X( q a.  % %.H   M M M b a.M ",
"b b b c c c c b b   6 $.$X;X|.q.5..X>X5X:X:X<X<X<X4X>Xt.5.e.OX>X4X:X*X{ X   3 N.#.. t t t t t t ",
"l.t M l.a.l.l.a.$ 7 K F.z.+.q.3.1.w. XOX=X4X5X>X&X.Xi.7.1.6.t.OX+X&X:X{.) @ - *.W     m m m M a.",
"a.b l.a.a.a.a.  $ W J.W.&.C V <.<.<.3.w..X=X;X&Xu.8.1.<.<.<.` e.e.}.=X+X| w - O.J ;     m m a.M ",
"M t M M a.M M   5 N./.^.F.I 2 : : l 4.q.w.w.0.0.e.8.<.s : : h 3.q.u.}.| w g V ' :.:.u   m M M a.",
"t t t b b c c   - N.W.T.S.H $   , l 7.i.i.r.0.r.i.t.3.h O   : h z ] 8.k O s 5.q.|.=X/   8 g c b ",
"a.M l.M M b l.  % W M.&.R f . , z 7.u.&X>X=X=X;X;X+Xe.3.l O   X X < <.h O s 4.q.u.y.y   a.b l.a.",
"a.a.a.l.M t   5 F M.S.T f > O w 8.|.*X:X=X+XXX%X:X;X+Xt.` ,     a.O 1 , X h 4.7.6.6.e   M g M l.",
"M M a.a.a.t . F B.W.G.I >     y e.%X:X4X*Xi.y..X;X5X:XOX] ,   a.M M       s <.1.1.x ,   M b a.a.",
"b c c b b b X K ~.).I.^ 5     y e.&X4X5X;X=X=X=X>X5X<XOX] *   b b c c     O 2 Y P , X   2 N b b ",
"M b l.l.l.a.o @.9X9XR.$.8   + g q.|.+X&X=X=X=X=X=X+XOXt.] 2 + l.M b l.l.    $ K F       a.a.l.l.",
"a.b M M a.a.X { 1X1X&X .e + d C 1.4.7.t.y.y.y.y.i.r.5.1.1.B 8 O a.N M M a.  $ K D . M a.l.M a.a.",
"a.t a.a.M a.X _ +X%Xo.k @ + P E Y s.f.@.' ' ' ' +.f.d.p.Y R 9   a.2 a.a.M   $ K F   M M M a.M M ",
"b t t b b t X k | | k X   - Q M.*.E.W.N.^ T Y R &.H./.J.*.*.F # b 2 c b b   % ~ F . g 8 b 8 c b ",
"l.a.M l.a.t   & < < @   > I J.W.E././.W.E.K.K.K.E.W./.!.W.W.*.n $   M l.+.  5 S.^ . a.l.l.g M l.",
"a.l.a.a.l.t           . 8 ^ J.~.^.E.E.E.E.E.W.Q.E.E.K.W./.W.S.I >   a.a.l.  5 H.%.o l.a.+.b l.+.",
"M M M M a.b M M M a.M   D ^ d.J.^.J.*.&.*.&.&.! %.&.-.E.Q.F.*.^ 6   M M +.  7 B.%.$ M a.M s a.M ",
"b b b c c c c b v t d . D -.J.E.^.E.J.&.~ T T R ^ d.J.W.^.J.K.J.p   b c c   5 B.;.. c 2 b d c c ",
"l.t M l.a.l.l.a.l.v l.O D M.W./.^.^.E.-.T n f P ! B.W.^./.).).E.D   M l.a.  5 J.%.X l.M l.l.l.a.",
"a.b l.a.a.a.a.a.M g l.+ D -.W./.^.K.N.&.F $ . 5 ^ &.S.E.).).W.-.7   l.a.a.  5 J.%.. l.a.a.a.a.M ",
"M t M M a.M M a.M 8 +.  p &.J.E.K.&.R ~ n     $ I ^ ~ S.E.K.N.R 5   M M a.  - -.~ o a.M M M a.a.",
"c t d b b c c s t t c   8 I ^ =.&.~ P P 8     + n n I ~ &.=.^ G >   2 b b   % Q F   c c i s b b ",
"a.M l.M M b l.l.l.a.    @ 8 >.z.+.2.B 2 +       > s V ' g.#X+.-     X M M   - -.W . a.l.a.g l.+.",
"a.a.a.l.M i l.a.a.0 3 3 = a oX@Xy.7.x 1 X       # g 2.q. X,X].r = 5 ; ; M   5 J.%.o +.M M c M l.",
"M M a.a.+.s M M 0 X.#XY.,.@X9X$Xy.e.q.] k     @ ) q.q.q.k.R.7X[.,.Y.[.[ X   5 T.%.o a.M M b a.a.",
"b c c b b b b   ; >.7XQ.7X$XT.G.h.g.h.h.N X   = ' g.s.g.h.J.R.$XR.Q.$X{     5 -.^ . 8 s d v b b ",
"M b l.l.l.a.l.  $ L &.^ ^ #.%.^ ^ #.#.^ D     $ L #.#.#.^ &.#.%.#.#.%.F .   $ K F   l.l.+.a.l.l.",
"a.b M M a.a.+.  + 5 6 6 6 6 6 6 6 6 7 7 %     . 5 7 6 6 6 6 7 7 6 6 6 %     . 5 -   M a.l.M a.a.",
"a.t a.a.M a.l.                                                                      M M M a.M M "
};
