/* XPM */
static char *_debe8109e8c44a59caa5e992e18ce58HSvxlZbBoFbzdfUn[] = {
/* columns rows colors chars-per-pixel */
"48 48 99 2 ",
"   c #1F201F",
".  c #1D1827",
"X  c #1F1B2C",
"o  c #1F1F35",
"O  c #201D2F",
"+  c #211E33",
"@  c #242524",
"#  c #2C2D2C",
"$  c #293020",
"%  c #323923",
"&  c #222036",
"*  c #2B2236",
"=  c #25233C",
"-  c #2C2238",
";  c #312237",
":  c #332439",
">  c #3B263B",
",  c #41273C",
"<  c #44283D",
"1  c #262542",
"2  c #282645",
"3  c #262843",
"4  c #292946",
"5  c #2A2A4C",
"6  c #2D2D54",
"7  c #302E55",
"8  c #302F58",
"9  c #2C3254",
"0  c #2E355B",
"q  c #33315C",
"w  c #333464",
"e  c #383667",
"r  c #303960",
"t  c #34366A",
"y  c #383769",
"u  c #373A6D",
"i  c #3A396D",
"p  c #363A74",
"a  c #3D3C73",
"s  c #363B79",
"d  c #393D7B",
"f  c #35426E",
"g  c #384577",
"h  c #39447C",
"j  c #3A4A7B",
"k  c #485040",
"l  c #5D6653",
"z  c #41407C",
"x  c #3C4283",
"c  c #3C4D86",
"v  c #3D4288",
"b  c #3D5289",
"n  c #3F4690",
"m  c #414384",
"M  c #43458B",
"N  c #434B8A",
"B  c #42518C",
"V  c #404793",
"C  c #434994",
"Z  c #444B9C",
"A  c #435D9A",
"S  c #49599F",
"D  c #454EA3",
"F  c #4A4FA2",
"G  c #4554A2",
"H  c #4B53A6",
"J  c #4658A3",
"K  c #4651A8",
"L  c #4C54AD",
"P  c #475BA8",
"I  c #4C55B4",
"U  c #4C5BB2",
"Y  c #4E59BC",
"T  c #515ABD",
"R  c #4760A5",
"E  c #4962A6",
"W  c #4963AA",
"Q  c #4C68B4",
"!  c #5163B3",
"~  c #526DBE",
"^  c #515DC6",
"/  c #525FCA",
"(  c #5565C3",
")  c #546EC5",
"_  c #5260CB",
"`  c #5375C5",
"'  c #5673C8",
"]  c #5562D4",
"[  c #5468D1",
"{  c #5665DB",
"}  c #5967DE",
"|  c #5971DD",
" . c #597BDB",
".. c #5C75E5",
"X. c #5B7AE3",
"o. c #5C79E8",
"O. c #5C81DD",
"+. c #5D83E4",
"@. c #618EED",
/* pixels */
"#     # #   # @         # @   # #     # + + + + + + + + #     # #     # @   @ # # #     #     # ",
"l k % l k   % l $ @   @ k   $ k l k % w a m c b b c x d w   % l l k $ $ $   % l % l k l l   % l ",
"k l k k l   % k k $   % k 3 1 3 = o 1 d ^ ..@.@.@.@...^ d = & 1 1 1 3 $ $   % k k k l k k # l k ",
"% % % % k   @ % % X X . 0 A Q U Z t 2 w Z U U ! ! ! I Z w 1 t Z ! Q A 9 . . X % % k % k % # k % ",
"# # # @ @     @ 9 0 0 0 h ~ +.| Y s 1 4 w e e e e e y w 4 2 s Y | +.~ h 0 0 r 9         @ # # # ",
"l   % l k k   = j `  .[ T G N a 6 1 & = = 3 3 = = 3 1 1 = + 1 6 i M H Y [  .` j = @ l % l l l k ",
"k # l k $ @ w x S ) ) I V u 7 & o * - : ; ; - - ; ; - ; ; : + + 1 7 p n U ) ' E b f l k k k k % ",
"%   % % X 1 v ^ T M e 5 = + & & & ; > < < < < < < , < < < > ; * + = + = 4 e N ' O.B 3 X % % k k ",
"      # O & y C M 8 1 + & ; > > : : ; > < < < < < < < < > ; : > > > ; + & = q N J f = X   @ # # ",
"k % l % 3 5 q a q 1 + + - > > , > : - : > , > > > > > > : = ; > > , > - - + = w a q 4 1 k # l k ",
"k k + = 8 i a a q 1 ; > > - & & - : > : = * & * * + * * > > : = & & - > > - = q a a i 7 = & % l ",
"% % X & 2 7 q 7 5 = * ; : * & o & - : - + = + o + = + = - : ; & o & * : : & = 5 q q 7 4 & X k k ",
"# @ 1 2 2 2 1 = = + & & & & & & & & & & & & & = + = + + & + & & & & & & & & & & & = 2 4 5 4 # # ",
"+ 6 n L I K p 1 + + & & & & & & & & & & & & & + + + = = = + = & & & + & & & & + 3 p K ( ~ A 0 X ",
"o 6 C ] } / v 2 + & & & + & & & & & & & + & = + = + + + + & + & & & & & & & & + 2 x / ..O.E 9 + ",
"+ 3 y M V x w = + & & & = + & & & & & & o = + + = + = + = & & & & & & & & & + + 1 q m C N i 4 + ",
"+ 1 5 6 6 6 2 = & & & & & & & & & & & & & + = = + & = + & & & & & & & & & & & & = 3 5 7 6 5 = & ",
"l k & = 1 1 1 o & & & & & & & & & & & & & & o + & & + o & & & & & & & & & & & + & 1 2 1 = & % l ",
"k l X 1 s D d 5 o & & & o = & & & + & & & & & & & & & = & & & + & & & & & & & + = d D d 3 o l k ",
"% % X 5 D { n 5 X & & & & + & & & = & & & & & & & & & + & & + = & & & & & & + o 5 D | G 5 X k % ",
"# # X 5 D ] n 2 X & & & & & & & & & & & & & & & o = & & & & & & & & & & & & + O 4 R +.W 5 X     ",
"l   X 5 D { D 2 O & & & & & & & & & & & & & & & + + & & & & o & & & & & & & + O 5 J X.P 6 X % k ",
"k # X 5 n / V 3 X & & & & & o & & & & & & & & & = + & & & & = + & & & & & & & X 1 n _ Z 5 X k % ",
"%   o 1 a M u = & & & & & & & & & & & & & & & & & & & & & + = + & & & & & & & + = u M p 1 X % k ",
"    & = q i q & + & & & & & & & & & & + & & + o & & & & & & & & & & & & & & & o = 8 i q = + @ # ",
"k % + = q a q = + & & & & & & & = & & o & + = = & & & + & & = + & & & & & & & & = q a q 3 + l k ",
"k k + 1 q a q = & & & & & & & & + & + = & & & + & + = = & + o + & & & o & & & + = q a q = + % l ",
"% % + & q y 7 = o & & & & & & & & & & & & & & & & & o + & = & & & & & & & & & o * 7 y 7 = + k k ",
"# @ O + & 1 = & & & & & & & & & & + & & & o = & & & & & & & & + & & & & & & & & & = 2 = O O # # ",
"% # w p p u 6 & + & & & & & & & + = & & & & + & & & & & & & o = & & & & & & & & = 6 t s g f l l ",
"+ 6 D ] { / v 2 X & & & & & & & & & & & & & & & & & & & & & + & & & & & & & & X 4 x _ o.@.W q O ",
"o 5 m I T L d 2 o & & & & & & o & & & & & & & & & & & & & & & & & & & & & & & + 1 s L ( ~ B 5 O ",
"+ 1 q i p i 6 & & & & & & & & & = + + = o + o + = = + + & & & & & + = o & & & + = 6 y a i 8 2 + ",
"l k 2 2 1 1 & = & & & & & & & & + o = + + = = + + + + = + = & & & & = + & & & & & & 1 2 2 2 % l ",
"k l + & 8 t 6 = & & & & & & & & + = + = + + = = = + + = o + & & & & + & & & & & = 6 t 0 = + l k ",
"% % X 5 n ^ n 1 X & & & & & & & + = + + = + + + + o = + = + & & & & & & & & & O 2 n ^ n 5 X k % ",
"# # X 5 D } D 5 X & & & & & & & + + = = & & & & + = + & & & & & & & & & + = & O 3 D { D 5 X @ @ ",
"l   X 5 n ^ v 2 + & & & & & & & = + + + & & & & + + o = + & & & = + & & & + + o 2 n ^ V 2 o l k ",
"k # + 1 p M e = & & & & & & & & = + + = & & & & = = + + = & & & o + & & & & & + 1 y M y 1 + k % ",
"%   + = q i q = + & & o & & & & + = + + + = & & + + o = + & & & + = & & & & & o & 0 i q = + k k ",
"@   + = q a q = + & & & & & & & + & & = + + + & & & & & & + & & = + = & & & & + = q a q = + # # ",
"k % + = q a q = o & & & & o & & = + & * : ; * + + & : : - + = & + & + & & & & + = q a w = + l k ",
"k k + = 7 e 7 & & & & & & & & & = & * : > : - ; = ; : > : * & & & * * + & = & & = 7 e 7 & + % l ",
"% % + + = 3 3 & & & o & - : > - & : > : - : > 2 2 > : - : > : + - : : & = + & & + 1 1 & & + k k ",
"# @ a s w 5 1 & & - - & * > , : ; : : : ; : , < < < , ; > : : ; > , > * + - - & + 1 5 w d p # # ",
"+ 7 D / H a 6 & ; > > - - > < < , ; * : , < < < < < < , : + : , < < > * * > > ; = 7 a H / F 6 + ",
"+ 5 x F C z q = ; , < > > , < < < > > > < < < < < < < < > > > < < < 2 < > , , ; = 8 z C F x 5 + ",
"+ 1 w a z a 9 - - > < < < < < < < < < < < < < < < < < < < < < < < < < < < < , ; = 8 a z a q 1 + "
};
