/* XPM */
static char *_ad91a5e7b124cf2aebed380f3e223d5jEUlPPhVRdLhHc6K[] = {
/* columns rows colors chars-per-pixel */
"48 48 7 1 ",
"  c #1F201F",
". c #242524",
"X c #2C2D2C",
"o c #293020",
"O c #323923",
"+ c #485040",
"@ c #5D6653",
/* pixels */
"X  XX X.    X. XX  X. .    .X  XX  X. .XXX  X  X",
"@+O@+ O@o. .+ o+@+O@+ ooooooo O@@+ooo O@O@+@@ O@",
"+@++@ O++o O+o o+@++@ O+Ooo+OX@++@+oo O+++@++X@+",
"OOOO+ .OO+ oO   oOOO+.o++OOOOX+OOOOO+XOOO+O+OX+O",
"XXX..  . .    . XX    ....      XXX  ...    .XXX",
"@ O@++  .X@O@@o.@ ooooooo ooooO+@ O+Ooooo.@O@@@+",
"+X@+o.   .@++++o+X+oo++oo oooo+O+X+O+OooO.@++++O",
"O OO+O.   +OOO++O O+oOO+O OOoOO+O OO+OOoO +OOO++",
"   XX .. ...  XX   X...       .X.  .X..      .XX",
"+O@OOX@@@++@+ @++O@OOX@@@++@+X@++O@OO.oooooo+X@+",
"+++@O @++O+OO.O@+++@O @++O+OO O@+++@O +oOooOO O@",
"OO+++ OO+++OOX++OO+++ OO+++OOX++OO+++ O++++OOX++",
"X..XXXXX     XXXX..XXXXX     XXXXXXXXXXX     XXX",
"OX@@@+@@O @@++@@OX@@@+@@O @@++@@OX@@@+@@O @@++@@",
"+XOO++++@ O+@O+++XOO++++@ O+@O+++XOO++++@ O+@O++",
"+ ++O+@+OXOOO+OO+ ++O+@+OXOOO+OO+ ++O+@+OXOOO+OO",
"X  XX XXXX  X  XX  XX XXXX  X  XX  X. .    .X  X",
"@+O@+ O@O@+@@ O@@+O@+ O@O@+@@ O@@+O@+ ooooooo O@",
"+@++@ O+++@++X@++@++@ O+++@++X@++@++@ O+Ooo+OX@+",
"OOOO+XOOO+O+O +OOOOO+XOOO+O+O +OOOOO+.o++OOOOX+O",
"XXX....XX   X ..XXX....XX   X ..XX    ....      ",
"@ O@+@@+@X@O@@@+@ O@+@@+@X@O@@@+@ ooooooo ooooO+",
"+X@+++++O @++++O+X@+++++O @++++O+X+oo++oo oooo+O",
"O OO+OO+O +OOO++O OO+OO+O +OOO++O O+oOO+O OOoOO+",
"   XX..   ..  XX   XX..   ..  XX   X...       .X",
"+O@OOX@@@++@+ @++O@OOX@@@++@+ @++O@OOX@@@++@+X@+",
"+++@O @++O+OO.O@+++@O @++O+OO.O@+++@O @++O+OO O@",
"OO+++ OO+++OOX++OO+++ OO+++OOX++OO+++ OO+++OOX++",
"X..XXXXX     XXXXXXXXXXX     XXXX..XXXXX     XXX",
"OX@@@+@@O @@++@@OX@@@+@@O @@++@@OX@@@+@@O @@++@@",
"+XOO++++@ O+@O+++XOO++++@ O+@O+++XOO++++@ O+@O++",
"+ ++O+@+OXOOO+OO+ ++O+@+OXOOO+OO+ ++O+@+OXOOO+OO",
"X  XX XXXX  X  XX  XX       X  XX  XX XXXX  X  X",
"@+O@+ O@O@+@@ O@@+O@+ o+oooOo O@@+O@+ O@O@+@@ O@",
"+@++@ O+++@++X@++@++@ ooOoooOX@++@++@ O+++@++X@+",
"OOOO+XOOO+O+O +OOOOO+X+OO+O+oX+OOOOO+XOOO+O+O +O",
"XXX....XX   X ..X..    ..   XXXXXXX....XX   X ..",
"@ O@+@@+@X@O@@@+@ oooooo+X@O@@@+@ O@+@@+@X@O@@@+",
"+X@+++++O @++++O+X++ooo+O @++++O+X@+++++O @++++O",
"O OO+OO+O +OOO++O OO+OO+O +OOO++O OO+OO+O +OOO++",
".  XX..   ..  XX   XXXX      XXX   XX..   ..  XX",
"+O@OOX@@@++@+ @++O@OOX@@@++@+X@++O@OOX@@@++@+ @+",
"+++@O @++O+OO.O@+++@O @++O+OO O@+++@O @++O+OO.O@",
"OO+++ OO+++OOX++OO+++ OO+++OOX++OO+++ OO+++OOX++",
"X..XXXXX     XXXX..XXXXX     XXXX..XXXXX     XXX",
"OX@@@+@@O @@++@@OX@@@+@@O @@++@@OX@@@+@@O @@++@@",
"+XOO++++@ O+@O+++XOO++++@ O+@O+++XOO++++@ O+@O++",
"+ ++O+@+OXOOO+OO+ ++O+@+OXOOO+OO+ ++O+@+OXOOO+OO"
};
