/* XPM */
static char *d3754145c10442829760d9852bc571e6H6F5ru02f9ueeCmv[] = {
/* columns rows colors chars-per-pixel */
"48 48 177 2 ",
"   c #1C0B0C",
".  c #1D0C15",
"X  c #131212",
"o  c #1B1B14",
"O  c #1C1B1C",
"+  c #200D0D",
"@  c #211D03",
"#  c #380618",
"$  c #22181D",
"%  c #1C250C",
"&  c #1F201F",
"*  c #352908",
"=  c #29360B",
"-  c #2C3B0B",
";  c #3A3705",
":  c #252718",
">  c #252B1A",
",  c #2A2D1C",
"<  c #322817",
"1  c #2F3E17",
"2  c #323916",
"3  c #3D0E24",
"4  c #251D24",
"5  c #331227",
"6  c #391E3E",
"7  c #242524",
"8  c #2C2D2C",
"9  c #302B25",
"0  c #293020",
"q  c #2D3328",
"w  c #303426",
"e  c #323923",
"r  c #353B2D",
"t  c #342734",
"y  c #393E31",
"u  c #4E2B0D",
"i  c #503B07",
"p  c #642D17",
"a  c #773A18",
"s  c #570B27",
"d  c #5D1B24",
"f  c #460B34",
"g  c #5C103C",
"h  c #660B2F",
"j  c #670C36",
"k  c #6A0E36",
"l  c #650C3B",
"z  c #6A0E3B",
"x  c #701134",
"c  c #71133F",
"v  c #5E2E2F",
"b  c #463A3C",
"n  c #78362C",
"m  c #772435",
"M  c #7C2D31",
"N  c #6A3531",
"B  c #304207",
"V  c #334509",
"C  c #394B12",
"Z  c #37451B",
"A  c #3C462F",
"S  c #3D4436",
"D  c #494406",
"F  c #5B4708",
"G  c #44550B",
"H  c #445416",
"J  c #6E500C",
"K  c #49620C",
"L  c #4F6B0E",
"P  c #506C0E",
"I  c #516212",
"U  c #526D12",
"Y  c #567214",
"T  c #597614",
"R  c #5D7B16",
"E  c #5B7818",
"W  c #656D1A",
"Q  c #736E13",
"!  c #617C18",
"~  c #424B36",
"^  c #464D3D",
"/  c #5C602A",
"(  c #441848",
")  c #511346",
"_  c #4B1953",
"`  c #670D43",
"'  c #6E124B",
"]  c #731542",
"[  c #74164B",
"{  c #75194A",
"}  c #6A1757",
"|  c #721655",
" . c #791853",
".. c #76195A",
"X. c #7B1B5C",
"o. c #432748",
"O. c #53374F",
"+. c #56215C",
"@. c #583A5C",
"#. c #622649",
"$. c #5B1C64",
"%. c #771963",
"&. c #7A1A65",
"*. c #7C1C6B",
"=. c #77216D",
"-. c #7E2273",
";. c #474847",
":. c #534B48",
">. c #485040",
",. c #52544B",
"<. c #5A4A5A",
"1. c #575151",
"2. c #674443",
"3. c #605E5C",
"4. c #58614F",
"5. c #5D6653",
"6. c #823434",
"7. c #8B3C39",
"8. c #844C1F",
"9. c #82660D",
"0. c #8F4D30",
"q. c #91453C",
"w. c #851F64",
"e. c #832166",
"r. c #81206C",
"t. c #852171",
"y. c #8D2474",
"u. c #8E257A",
"i. c #922779",
"p. c #924941",
"a. c #9C5347",
"s. c #628117",
"d. c #648319",
"f. c #6A871B",
"g. c #67881A",
"h. c #6B8B1B",
"j. c #792A86",
"k. c #7C298A",
"l. c #862685",
"z. c #8B2481",
"x. c #8B2984",
"c. c #8E278B",
"v. c #942882",
"b. c #9A2A87",
"n. c #962C8A",
"m. c #9B2C8D",
"M. c #8C2F98",
"N. c #952C94",
"B. c #9D2F9B",
"V. c #8E309B",
"C. c #92309F",
"Z. c #A2319C",
"A. c #8A31A2",
"S. c #9B31A6",
"D. c #9D34AB",
"F. c #9837B2",
"G. c #A231A2",
"H. c #A234AD",
"J. c #AC36AD",
"K. c #AC37B3",
"L. c #A438B4",
"P. c #A637B8",
"I. c #AA39BD",
"U. c #B038B5",
"Y. c #B33ABD",
"T. c #AC3BC0",
"R. c #B73CC3",
"E. c #B93DC7",
"W. c #B43FCD",
"Q. c #BA3FCD",
"!. c #B741D5",
"~. c #BB41D4",
"^. c #BC43D9",
"/. c #C242D6",
"(. c #C243D9",
"). c #858785",
"_. c #969497",
/* pixels */
"8 & & 8 8 & 8 7 & & & & 8 7 & 8 8 & & 8 7 & 7 & & & & 7 8 & & 8 8 & & 8 7 & 7 8 8 8 & & 8 & & 8 ",
"5.>.e 5.>.& e 5.0 7 & 7 >.& 0 >.5.>.e 5.>.& 0 0 0 0 0 0 0 & e 5.5.>.0 0 0 & e 5.e 5.>.5.5.& e 5.",
">.5.>.>.5.& e >.>.0 & e >.0 & 0 >.5.>.>.5.& e >.e 0 0 >.e 8 5.>.>.5.>.0 0 & e >.>.>.5.>.>.8 5.>.",
"e e e e >.& 7 e e >.& 0 e & & & 0 e e e >.7 0 >.>.e e e e 8 >.e e e e e >.8 e e e >.e >.e 8 >.e ",
"8 8 8 7 7 & & 7 & 7 & & & & 7 & 8 8 & & & & 7 7 7 7 7 O & & & & 8 8 8 & & 7 7 7 & & & & 7 8 8 8 ",
"5.& e 5.>.>.& & 7 8 5.e 5.5.0 7 5.& 0 0 0 0 0 0 0 & , 0 0 0 e >.5.& e >.e 0 0 0 0 7 5.e 5.5.5.>.",
">.8 5.>.0 7 & & & 7 5.>.>.>.>.0 >.8 >.0 0 >.>.0 0 & 0 0 0 0 >.e >.8 >.e >.e 0 0 e 7 5.>.>.>.>.e ",
"e & e e >.e 7 & & & >.e e e >.>.e & e >.0 e e >.e & e e 0 e e >.e & e e >.e e 0 e & >.e e e >.>.",
"& & & 8 8 & 7 7 & 7 7 7 & & 8 8 & & : 8 7 7 7 7 & & & & & & 7 8 7 & & 7 8 7 7 & & & & & & 7 8 8 ",
">.e 5.e e 8 5.5.5.>.>.5.>.& 5.>.>.w 5.e e 8 5.5.5.>.>.5.>.8 5.>.>.e 5.e e 7 0 0 0 0 0 0 >.8 5.>.",
">.>.>.5.e & 5.>.>.e >.e e 7 e 5.>.>.>.5.e & 5.>.>.e >.e e & e 5.>.>.>.5.e & >.0 e 0 0 e e & e 5.",
"e e >.>.>.& e e >.>.>.e e 8 >.>.e e >.>.^ & e e >.>.>.e e 8 >.>.e e >.>.>.& e >.>.>.>.e e 8 >.>.",
"8 7 7 8 8 8 8 8 & & & & & 8 8 8 8 7 7 8 8 8 8 8 & & & & & 8 8 8 8 8 8 8 8 8 8 8 & & & & & 8 8 8 ",
"e 8 5.5.5.>.5.5.e & 5.5.>.>.5.5.e 8 5.5.~ A >.5.e & 5.5.>.>.5.5.e 8 5.5.5.>.5.5.e & 5.5.>.>.5.5.",
">.8 e e >.>.>.>.5.& e >.5.e >.>.^ 8 e 2 D ; , S 5.& e r ~ > q r >.8 e e >.>.>.>.5.& e >.5.e >.>.",
">.& >.>.e >.5.>.e 8 e e e >.e e >.O ^ * F ; @ r e 8 e - Y B = C A & >.>.e >.5.>.e 8 e e e >.e e ",
"8 & & 8 8 & 8 8 8 8 & & 8 : : q $ . . + * $ < < $ , : C g.R R s.C 7 7 8 7 & 7 & & & & 7 8 & & 8 ",
"5.>.e 5.>.& e 5.e 5.>.5.5.O w b g *.l.} 3 + * F i < Z E h.g.E ! C r e 5.>.& 0 0 0 0 0 0 0 & e 5.",
">.5.>.>.5.& e >.>.>.5.>.>.8 r j G.~.^.P.{ p J 9.Q G K L R T g.g.Y C % S 5.& e >.e 0 0 >.e 8 5.>.",
"e e e e >.8 e e e >.e >.w X # X.Z.G.G.I.n.6.0.8.a u G R L P d.s.d.g.I 1 >.7 0 >.>.e e e e 8 >.e ",
"8 8 8 7 7 7 7 8 8 & & & 4 # s w.| | '  .w.M 7.q.7.d H f.g.P s.Y s.h.E = O & 7 7 7 7 & & & & & & ",
"5.& e 5.>.5.5.>.5.8 5.9 f l  .G.I.P.S.-.] M 7.p.a.n W f.g.E g.U R s.U Z , 0 0 0 0 & 0 0 0 0 e >.",
">.8 5.>.>.>.>.>.e & 4.O.l.u.m.Q.^.^.Q.T.] M 6.m m N W R d.h.T V Z 1 e > 0 >.>.0 0 & 0 0 0 0 >.e ",
"e & e e >.e e >.e & S $.T.J.Z.Q./.~.^.N. .z l h j z v 2./ s.P 1 > & e >.0 e e >.e & e e 0 e e >.",
"& & & 8 8 7 7 & O 7 : +.D.Z.b.Y.Y./.R.v.H.V.&.j j j ' x.#.B - 7 & & & 8 7 7 7 & & & & & & & 7 8 ",
">.e 5.e e 8 5.5.5.>.>.1.=.u.w.t.t.Z.v.m.W.W.D.t.| *.D.I.} o >.^ >.e 5.e e 8 5.5.5.>.>.5.>.8 5.>.",
">.>.>.5.e & 5.>.>.w >., k.T.D.%.z ] c m.(.Q.Q.K.v.P.!.^._ 7 e 5.>.>.>.5.e & 5.>.>.e >.e e & e 5.",
"e e >.>.>.& e e >.>.>.0 k.Q.Q.P.*...k N.(.(./.U.i.Z.K.H.( 8 >.>.e e >.>.>.& e e >.>.>.e e 8 >.>.",
"8 7 7 8 8 8 8 8 & & & O k.Q.(.Q.W.N.b.z.v.K.R.u.] e.r.) 7 8 8 8 8 7 7 8 8 8 8 8 & & & & & 8 8 8 ",
"e 8 5.5.5.>.5.5.w & 5.>.k.Q.Q.E.Q.w.E.c.l [  .k %.T.A.3.^ >.5.5.e 8 5.5.5.>.5.5.e & 5.5.>.>.5.5.",
">.8 e e >.>.>.>.5.7 e >.:.z.y.] k x E.W.z.r.X.&.P.F._ ^ 5.e >.>.>.8 e e >.>.>.>.5.& e >.5.e >.>.",
">.& >.>.e >.5.>.e 8 e e 9 -.m.*.` k R.Q.~.^.H.X.=.( w e e >.e e >.& >.>.e >.5.>.e 8 e e e >.e e ",
"8 & & 8 8 & 8 8 8 8 & & t D.Q.I.z.[ y./.(.Q.M.5   O & & 8 & & 8 8 & & 8 8 & 8 8 8 8 & & 8 & & 8 ",
"5.>.e 5.>.& e 5.e 5.>.5.,.j.W./.Q.B. .I.I.V.o.>., 0 0 e 0 & e 5.5.>.e 5.>.& e 5.e 5.>.5.5.& e 5.",
">.5.>.>.5.& e >.>.>.5.>.>._ M.L.D.C.o.@.<.6 0 0 e 0 0 0 e 8 5.>.>.5.>.>.5.& e >.>.>.5.>.>.8 5.>.",
"e e e e >.8 e e e >.e >.e 4 y _.1.8 A e >.8 >.e e >.e >.0 8 >.e e e e e >.8 e e e >.e >.e & >.e ",
"8 8 8 7 7 7 7 8 8 & & & 8 & 7 ).;.7 7 & & & & 7 7 & & & 8 8 8 8 8 8 8 7 7 7 7 8 8 & & & 8 & 7 7 ",
"5.& e 5.>.5.5.>.5.8 5.e 5.5.5.>.5.& 0 0 0 0 0 0 >.8 5.e 5.5.5.>.5.& e 5.>.5.5.>.5.8 5.e 5.5.5.>.",
">.8 5.>.>.>.>.>.e & 5.>.>.>.>.e >.8 >.>.0 0 0 >.e & 5.>.>.>.>.e >.8 5.>.>.>.>.>.e & 5.>.>.>.>.e ",
"e & e e >.e e >.e & >.e e e >.>.e & e e >.e e >.e & >.e e e >.>.e & e e >.e e >.e & >.e e e >.>.",
"7 & & 8 8 7 7 & & & 7 7 & & 8 8 & & & 8 8 8 8 & & & & & & 8 8 8 & & & 8 8 7 7 & & & 7 7 & & 8 8 ",
">.e 5.e e 8 5.5.5.>.>.5.>.& 5.>.>.e 5.e e 8 5.5.5.>.>.5.>.8 5.>.>.e 5.e e 8 5.5.5.>.>.5.>.& 5.>.",
">.>.>.5.e & 5.>.>.e >.e e 7 e 5.>.>.>.5.e & 5.>.>.e >.e e & e 5.>.>.>.5.e & 5.>.>.e >.e e 7 e 5.",
"e e >.>.>.& e e >.>.>.e e 8 >.>.e e >.>.>.& e e >.>.>.e e 8 >.>.e e >.>.>.& e e >.>.>.e e 8 >.>.",
"8 7 7 8 8 8 8 8 & & & & & 8 8 8 8 7 7 8 8 8 8 8 & & & & & 8 8 8 8 7 7 8 8 8 8 8 & & & & & 8 8 8 ",
"e 8 5.5.5.>.5.5.e & 5.5.>.>.5.5.e 8 5.5.5.>.5.5.e & 5.5.>.>.5.5.e 8 5.5.5.>.5.5.e & 5.5.>.>.5.5.",
">.8 e e >.>.>.>.5.& e >.5.e >.>.>.8 e e >.>.>.>.5.& e >.5.e >.>.>.8 e e >.>.>.>.5.& e >.5.e >.>.",
">.& >.>.e >.5.>.e 8 e e e >.e e >.& >.>.e >.5.>.e 8 e e e >.e e >.& >.>.e >.5.>.e 8 e e e >.e e "
};
