/* XPM */
static char *_90d77acc61342f69ca52d6fdd5cffbdE4t8DiHyfl1BmMPb[] = {
/* columns rows colors chars-per-pixel */
"48 48 8 1 ",
"  c #282A2B",
". c #3C3F41",
"X c #535557",
"o c #55595C",
"O c #5C5F62",
"+ c #787E82",
"@ c #858A8D",
"# c #999FA3",
/* pixels */
".   ......oooooooooooooooooooooooooooooooooooo..",
"+...######@@@@@@@@@@@@@@@@@@@@@@@@@@@+++++++++++",
"+...######@@@@@@@@@@@@@@@@@@@@@@@@@@@+++++++++++",
"+...######@@@@@@@@@@@@@@@@@@@@@@@@@@@+++++++++++",
"Oooo###++++++@@@++++++@@@+++++++++OOO+++++++++OO",
"Oooo###++++++@@@++++++@@@+++++++++OOO+++++++++OO",
"Oooo###++++++@@@++++++@@@+++++++++OOO+++++++++OO",
"Oooo@@@+++++++++@@@++++++++++++++++++++++++OOOOO",
"Oooo@@@+++++++++@@@++++++++++++++++++++++++OOOOO",
"Oooo@@@+++++++++@@@++++++++++++++++++++++++OOOOO",
"O...@@@+++++++++++++++++++++OOO++++++++++++OOOOO",
"O...@@@+++++++++++++++++++++OOO++++++++++++OOOOO",
"O...@@@+++++++++++++++++++++OOO++++++++++++OOOOO",
"O...@@@+++@@@+++++++++OOO+++++++++OOO+++++++++OO",
"O...@@@+++@@@+++++++++OOO+++++++++OOO+++++++++OO",
"O...@@@+++@@@+++++++++OOO+++++++++OOO+++++++++OO",
"O...@@@++++++++++++++++++OOO+++++++++++++++OOOOO",
"O...@@@++++++++++++++++++OOO+++++++++++++++OOOOO",
"O...@@@++++++++++++++++++OOO+++++++++++++++OOOOO",
"X   ++++++@@@++++++OOO+++++++++OOOOOOOOOOOOOOOXX",
"X   ++++++@@@++++++OOO+++++++++OOOOOOOOOOOOOOOXX",
"X   ++++++@@@++++++OOO+++++++++OOOOOOOOOOOOOOOXX",
"oooooooooooooooooooooo...   ......oooooooooooooo",
"oooooooooooooooooooooo...   ......oooooooooooooo",
"oooooooooooooooooooooo...   ......oooooooooooooo",
"@@@@@@@@@@@@@++++++++++++...######@@@@@@@@@@@@@@",
"@@@@@@@@@@@@@++++++++++++...######@@@@@@@@@@@@@@",
"@@@@@@@@@@@@@++++++++++++...######@@@@@@@@@@@@@@",
"@+++++++++OOO+++++++++OOO...###@@@+++@@@++++++@@",
"@+++++++++OOO+++++++++OOO...###@@@+++@@@++++++@@",
"@+++++++++OOO+++++++++OOO...###@@@+++@@@++++++@@",
"+++++++++++++++++++OOOOOOooo@@@+++++++++@@@+++++",
"+++++++++++++++++++OOOOOOooo@@@+++++++++@@@+++++",
"+++++++++++++++++++OOOOOOooo@@@+++++++++@@@+++++",
"++++OOO++++++++++++OOOOOOooo@@@+++@@@+++++++++++",
"++++OOO++++++++++++OOOOOOooo@@@+++@@@+++++++++++",
"++++OOO++++++++++++OOOOOOooo@@@+++@@@+++++++++++",
"+++++++++++++++++++OOOOOOooo@@@+++++++++++++++++",
"+++++++++++++++++++OOOOOOooo@@@+++++++++++++++++",
"+++++++++++++++++++OOOOOOooo@@@+++++++++++++++++",
"O+++++++++OOO+++++++++OOOooo@@@++++++@@@++++++OO",
"O+++++++++OOO+++++++++OOOooo@@@++++++@@@++++++OO",
"O+++++++++OOO+++++++++OOOooo@@@++++++@@@++++++OO",
"+OOO++++++++++++OOO+++OOOooo@@@+++++++++++++++++",
"+OOO++++++++++++OOO+++OOOooo@@@+++++++++++++++++",
"+OOO++++++++++++OOO+++OOOooo@@@+++++++++++++++++",
"+++++++OOOOOOOOOOOOOOOXXX...+++++++++++++++OOO++",
"+++++++OOOOOOOOOOOOOOOXXX...+++++++++++++++OOO++"
};
